<svg width="1200" height="900" viewBox="0 0 1200 900" fill="none" xmlns="http://www.w3.org/2000/svg">
  <defs>
    <linearGradient id="bg2" x1="180" y1="90" x2="1020" y2="820" gradientUnits="userSpaceOnUse">
      <stop stop-color="#F7FAFF"/>
      <stop offset="1" stop-color="#E2ECFF"/>
    </linearGradient>
    <linearGradient id="accent2" x1="0" y1="0" x2="1" y2="1">
      <stop stop-color="#0F172A"/>
      <stop offset="1" stop-color="#2563EB"/>
    </linearGradient>
  </defs>
  <rect width="1200" height="900" rx="36" fill="url(#bg2)"/>
  <circle cx="972" cy="184" r="116" fill="#BFDBFE" fill-opacity=".7"/>
  <circle cx="160" cy="728" r="90" fill="#DBEAFE"/>
  <rect x="150" y="120" width="900" height="650" rx="40" fill="#FFFFFF"/>
  <rect x="204" y="174" width="430" height="432" rx="28" fill="#F8FBFF"/>
  <rect x="686" y="174" width="312" height="170" rx="28" fill="#E0EEFF"/>
  <rect x="686" y="378" width="312" height="230" rx="28" fill="#F8FBFF"/>
  <rect x="240" y="220" width="220" height="24" rx="12" fill="#C7D2FE"/>
  <rect x="240" y="264" width="160" height="18" rx="9" fill="#CBD5E1"/>
  <rect x="240" y="322" width="350" height="204" rx="22" fill="url(#accent2)"/>
  <rect x="718" y="208" width="184" height="20" rx="10" fill="#94A3B8"/>
  <rect x="718" y="246" width="128" height="20" rx="10" fill="#CBD5E1"/>
  <rect x="718" y="414" width="130" height="130" rx="24" fill="#DBEAFE"/>
  <rect x="866" y="414" width="96" height="18" rx="9" fill="#94A3B8"/>
  <rect x="866" y="448" width="74" height="18" rx="9" fill="#CBD5E1"/>
  <rect x="866" y="496" width="100" height="64" rx="22" fill="#0F172A"/>
  <rect x="242" y="640" width="756" height="84" rx="24" fill="#EFF6FF"/>
  <path d="M424 450C424 341 512 253 621 253C730 253 818 341 818 450C818 559 730 647 621 647C512 647 424 559 424 450Z" fill="#F1F5F9"/>
  <path d="M503 449C503 381 558 326 626 326C694 326 749 381 749 449V491C749 559 694 614 626 614C558 614 503 559 503 491V449Z" fill="#F3C9A8"/>
  <path d="M525 407C525 339 581 284 649 284C702 284 748 319 764 367C753 363 740 361 726 361C689 361 654 377 631 404C606 433 569 450 529 450C528 450 527 450 525 450V407Z" fill="#0F172A"/>
  <rect x="548" y="560" width="172" height="94" rx="34" fill="#2563EB"/>
  <text x="238" y="694" fill="#1E3A8A" font-family="Arial, sans-serif" font-size="34" font-weight="700">Creator Workspace</text>
</svg>
