<svg width="1600" height="1100" viewBox="0 0 1600 1100" fill="none" xmlns="http://www.w3.org/2000/svg">
  <defs>
    <linearGradient id="hb" x1="0" y1="0" x2="1" y2="1">
      <stop stop-color="#F4F8FF"/>
      <stop offset="1" stop-color="#E0ECFF"/>
    </linearGradient>
  </defs>
  <rect width="1600" height="1100" rx="34" fill="url(#hb)"/>
  <circle cx="1280" cy="178" r="140" fill="#DBEAFE"/>
  <circle cx="240" cy="830" r="130" fill="#BFDBFE"/>
  <text x="122" y="148" fill="#0F172A" font-family="Arial, sans-serif" font-size="70" font-weight="900">SOUND THAT</text>
  <text x="122" y="228" fill="#2563EB" font-family="Arial, sans-serif" font-size="72" font-weight="900">MOVES YOU</text>
  <rect x="122" y="286" width="360" height="88" rx="30" fill="#0F172A"/>
  <text x="178" y="344" fill="white" font-family="Arial, sans-serif" font-size="42" font-weight="700">UP TO 30% OFF</text>
  <g transform="translate(930 560)">
    <path d="M-262 16C-262 -154 -126 -290 44 -290C214 -290 350 -154 350 16V182H278V16C278 -114 174 -218 44 -218C-86 -218 -190 -114 -190 16V182H-262V16Z" fill="#111827"/>
    <rect x="-314" y="144" width="162" height="252" rx="74" fill="#2563EB"/>
    <rect x="196" y="144" width="162" height="252" rx="74" fill="#2563EB"/>
    <rect x="-268" y="192" width="72" height="150" rx="28" fill="#0F172A"/>
    <rect x="238" y="192" width="72" height="150" rx="28" fill="#0F172A"/>
    <ellipse cx="44" cy="248" rx="156" ry="116" fill="#1E40AF"/>
    <ellipse cx="44" cy="248" rx="126" ry="88" fill="#0F172A"/>
  </g>
</svg>
