<svg width="1200" height="900" viewBox="0 0 1200 900" fill="none" xmlns="http://www.w3.org/2000/svg">
  <defs>
    <linearGradient id="bg1" x1="120" y1="70" x2="1080" y2="860" gradientUnits="userSpaceOnUse">
      <stop stop-color="#F8FBFF"/>
      <stop offset="1" stop-color="#D9EAFE"/>
    </linearGradient>
    <linearGradient id="card1" x1="240" y1="180" x2="980" y2="760" gradientUnits="userSpaceOnUse">
      <stop stop-color="#FFFFFF"/>
      <stop offset="1" stop-color="#EEF5FF"/>
    </linearGradient>
    <linearGradient id="accent1" x1="0" y1="0" x2="1" y2="1">
      <stop stop-color="#2563EB"/>
      <stop offset="1" stop-color="#38BDF8"/>
    </linearGradient>
  </defs>
  <rect width="1200" height="900" rx="36" fill="url(#bg1)"/>
  <circle cx="210" cy="160" r="96" fill="#BFDBFE" fill-opacity=".55"/>
  <circle cx="1010" cy="720" r="122" fill="#DBEAFE"/>
  <rect x="164" y="114" width="872" height="672" rx="40" fill="url(#card1)"/>
  <rect x="220" y="176" width="282" height="548" rx="28" fill="#E0EEFF"/>
  <rect x="548" y="206" width="418" height="54" rx="18" fill="#D8E8FF"/>
  <rect x="548" y="290" width="316" height="30" rx="15" fill="#CBDFFF"/>
  <rect x="548" y="338" width="256" height="30" rx="15" fill="#CBDFFF"/>
  <rect x="548" y="432" width="196" height="70" rx="24" fill="url(#accent1)"/>
  <rect x="548" y="534" width="146" height="18" rx="9" fill="#94A3B8"/>
  <rect x="548" y="568" width="232" height="18" rx="9" fill="#C7D2FE"/>
  <rect x="548" y="618" width="348" height="84" rx="26" fill="#F8FBFF"/>
  <path d="M290 278C351 220 451 227 509 293L494 328C441 271 356 267 304 319L290 278Z" fill="#2563EB" fill-opacity=".12"/>
  <rect x="274" y="340" width="176" height="246" rx="88" fill="#0F172A"/>
  <path d="M322 355C322 283 379 226 451 226C523 226 580 283 580 355V481C580 553 523 610 451 610C379 610 322 553 322 481V355Z" fill="#F4C7A1"/>
  <path d="M330 335C330 256 391 192 469 192C533 192 592 236 612 297C597 288 578 283 557 283C524 283 493 299 471 326C446 356 409 373 368 373C354 373 341 371 329 367L330 335Z" fill="#0F172A"/>
  <rect x="352" y="545" width="232" height="164" rx="52" fill="url(#accent1)"/>
  <path d="M430 531C430 506 450 486 475 486H503C528 486 548 506 548 531V552H430V531Z" fill="#2563EB"/>
  <text x="574" y="692" fill="#1E3A8A" font-family="Arial, sans-serif" font-size="36" font-weight="700">Fashion Drop</text>
</svg>
