<svg width="1200" height="900" viewBox="0 0 1200 900" fill="none" xmlns="http://www.w3.org/2000/svg">
  <defs>
    <linearGradient id="bg3" x1="160" y1="70" x2="1040" y2="830" gradientUnits="userSpaceOnUse">
      <stop stop-color="#FFFDF8"/>
      <stop offset="1" stop-color="#E0F2FE"/>
    </linearGradient>
    <linearGradient id="bag" x1="0" y1="0" x2="1" y2="1">
      <stop stop-color="#2563EB"/>
      <stop offset="1" stop-color="#7C3AED"/>
    </linearGradient>
    <linearGradient id="soft" x1="0" y1="0" x2="1" y2="1">
      <stop stop-color="#F59E0B"/>
      <stop offset="1" stop-color="#FB7185"/>
    </linearGradient>
  </defs>
  <rect width="1200" height="900" rx="36" fill="url(#bg3)"/>
  <circle cx="970" cy="174" r="120" fill="#FDE68A" fill-opacity=".45"/>
  <circle cx="224" cy="764" r="114" fill="#BFDBFE" fill-opacity=".75"/>
  <rect x="152" y="114" width="896" height="674" rx="42" fill="#FFFFFF"/>
  <rect x="212" y="170" width="396" height="562" rx="30" fill="#F8FBFF"/>
  <rect x="646" y="192" width="340" height="76" rx="22" fill="#E0ECFF"/>
  <rect x="646" y="302" width="272" height="24" rx="12" fill="#CBD5E1"/>
  <rect x="646" y="348" width="214" height="24" rx="12" fill="#CBD5E1"/>
  <rect x="646" y="432" width="224" height="72" rx="24" fill="#0F172A"/>
  <rect x="646" y="542" width="310" height="144" rx="28" fill="#F8FAFC"/>
  <rect x="704" y="574" width="86" height="86" rx="24" fill="url(#soft)"/>
  <rect x="816" y="574" width="86" height="86" rx="24" fill="#DBEAFE"/>
  <path d="M304 336C304 254 371 188 453 188C535 188 602 254 602 336V420C602 502 535 568 453 568C371 568 304 502 304 420V336Z" fill="#F1C7A5"/>
  <path d="M322 314C322 241 381 182 454 182C509 182 564 216 590 268C579 264 566 262 553 262C514 262 476 278 449 306C421 335 382 351 341 351C334 351 328 350 322 349V314Z" fill="#0F172A"/>
  <rect x="336" y="538" width="244" height="162" rx="54" fill="#111827"/>
  <rect x="242" y="468" width="104" height="188" rx="32" fill="url(#bag)"/>
  <path d="M270 468C270 433 298 405 333 405H338C373 405 401 433 401 468" stroke="#1D4ED8" stroke-width="18" stroke-linecap="round"/>
  <rect x="532" y="494" width="112" height="204" rx="34" fill="url(#soft)"/>
  <path d="M562 494C562 457 592 427 629 427H634C671 427 701 457 701 494" stroke="#F59E0B" stroke-width="18" stroke-linecap="round"/>
  <text x="648" y="654" fill="#1E3A8A" font-family="Arial, sans-serif" font-size="34" font-weight="700">Fresh Picks</text>
</svg>
