<svg width="1600" height="1100" viewBox="0 0 1600 1100" fill="none" xmlns="http://www.w3.org/2000/svg">
  <defs>
    <linearGradient id="shopbg" x1="0" y1="0" x2="1" y2="1">
      <stop stop-color="#FFF7ED"/>
      <stop offset="1" stop-color="#E0F2FE"/>
    </linearGradient>
  </defs>
  <rect width="1600" height="1100" rx="34" fill="url(#shopbg)"/>
  <rect x="0" y="720" width="1600" height="380" fill="#FED7AA"/>
  <text x="120" y="154" fill="#111827" font-family="Arial, sans-serif" font-size="64" font-weight="900">FRESH PICKS</text>
  <text x="120" y="232" fill="#EA580C" font-family="Arial, sans-serif" font-size="66" font-weight="900">FOR EVERYDAY</text>
  <rect x="120" y="284" width="332" height="82" rx="28" fill="#111827"/>
  <text x="176" y="338" fill="white" font-family="Arial, sans-serif" font-size="38" font-weight="700">NEW ARRIVALS</text>
  <g transform="translate(960 500)">
    <rect x="-290" y="142" width="140" height="282" rx="42" fill="#2563EB"/>
    <path d="M-250 142C-250 98 -214 62 -170 62H-166C-122 62 -86 98 -86 142" stroke="#1D4ED8" stroke-width="18" stroke-linecap="round"/>
    <rect x="-84" y="96" width="162" height="328" rx="48" fill="#FB7185"/>
    <path d="M-42 96C-42 50 -4 12 42 12H46C92 12 130 50 130 96" stroke="#E11D48" stroke-width="18" stroke-linecap="round"/>
    <rect x="152" y="182" width="116" height="242" rx="38" fill="#F59E0B"/>
    <path d="M186 182C186 146 216 116 252 116H256C292 116 322 146 322 182" stroke="#D97706" stroke-width="18" stroke-linecap="round"/>
    <circle cx="-314" cy="-16" r="110" fill="#DBEAFE"/>
    <circle cx="370" cy="10" r="130" fill="#BFDBFE"/>
  </g>
</svg>
